<svg xmlns="http://www.w3.org/2000/svg" viewBox="0 0 442.48 68.48"><title>logo-xfinity-stream</title><path d="M22.69,34.59,35.43,17.5H30.11A5.9,5.9,0,0,0,24.93,20l-6.72,9-6.51-9A5.9,5.9,0,0,0,6.51,17.5H1.19l12.6,17.08L0,53.21H5a5.9,5.9,0,0,0,5.18-2.52l8-10.57L36.9,66a5.82,5.82,0,0,0,5.18,2.52h5.46Zm102,18.62h7.21V17.5H124.7Zm-57.2,0h7.21V17.5H67.5Zm109.36,12.6L203,17.5h-3.92c-2.38,0-4.2.7-5.18,2.52L183.58,39.14,174.69,20c-.91-1.89-2.8-2.52-5.18-2.52h-3.78l13.72,29.13-12,21.84h3.92C173.85,68.48,175.81,67.71,176.86,65.81ZM83.32,17.5V53.21h7.21V28.71A11.35,11.35,0,0,1,100,23.6c5.32,0,9,3.36,9,10.08v16.1a3.25,3.25,0,0,0,3.36,3.43h3.85V32.42c0-9.24-5.88-15.68-14.42-15.68A16.09,16.09,0,0,0,90.53,21V17.5Zm62,23c0,7.77,4.76,13.3,13.3,13.3a18.33,18.33,0,0,0,5.25-.7l-1.47-6.3a14.81,14.81,0,0,1-3.29.35c-3.5,0-6.58-1.89-6.58-6.79V23.95h10.08l-2.94-6.44h-7.14V3.15L145.28,6.3V17.5h-7.63v6.44h7.63ZM45.3,23.95V53.21h7.21V23.95h9.24V17.5H52.51V14.84c0-6.09,3.64-8.12,7.21-8.12a8.61,8.61,0,0,1,2.45.35L63.64.7A12.61,12.61,0,0,0,59.16,0C50.2,0,45.3,6.65,45.3,14.7v2.8H41.52L37,23.95ZM218.7,45.36a16.86,16.86,0,0,0,10.76,4.29c4.45,0,8.19-2.5,8.19-6.24,0-9.13-20.52-4.13-20.52-16.3,0-6.47,6.08-10.37,12.09-10.37a20.61,20.61,0,0,1,11.47,3.43l-2.34,3.67c-3-2-5.23-2.89-8.89-2.89s-7.88,2-7.88,6.08c0,7.88,20.51,3.67,20.51,16.15,0,6.63-5.62,10.69-12.32,10.69A20.17,20.17,0,0,1,216,48.79ZM296.45,21c-.47-.08-1.87-.08-2.11-.08a12.39,12.39,0,0,0-11.15,7.88V53.21h-4.45V17.51h4.45v4.69a13.66,13.66,0,0,1,11.23-5.46c.62,0,2.18.08,2.65.16Zm-26,.71H258.48V41.16c0,3.21.63,4.78,1.57,5.95A7.31,7.31,0,0,0,266,49.61a14.2,14.2,0,0,0,3.84-.47l.78,4.07a17.33,17.33,0,0,1-4.62.63c-3.29,0-7.12-1-9.55-4.07-1.57-2-2.43-4.54-2.43-8.77V21.73h-8.31V17.51H254V4.76l4.46-1.61V17.51h11.94Zm62.33,12.39c0-9.91-7-17.39-16.54-17.39-10.06,0-17,8.35-17,18.56,0,11.08,7.88,18.56,17.86,18.56a18.45,18.45,0,0,0,15-7.14l-1.12-1a2.83,2.83,0,0,0-3.82,0,14.15,14.15,0,0,1-10,3.88c-8.19,0-13.1-6.4-13.42-14h29A13.41,13.41,0,0,0,332.75,34.13Zm-28.86-2.5c1.33-6.16,6-10.69,12.32-10.69,6.16,0,11,4.45,11.93,10.69Zm64.93-14.12v4.92a17.31,17.31,0,0,0-13-5.69,18.11,18.11,0,0,0-11.31,4,19,19,0,0,0-6.63,14.59,18.27,18.27,0,0,0,7.57,15.21A18.06,18.06,0,0,0,356,53.86a15.67,15.67,0,0,0,12.79-6v5.35h4.31V17.51Zm-.16,24.34c-2.81,4.84-7.49,7.8-12.72,7.8A13.75,13.75,0,0,1,342.3,35.3a14.54,14.54,0,0,1,5-11.31,13.74,13.74,0,0,1,8.58-3,15.65,15.65,0,0,1,12.79,7.18Zm41.95-7V51a2.23,2.23,0,0,0,2.23,2.23h2.23V34.34h0a31.33,31.33,0,0,0-.39-5.09c2.19-4.31,6.58-8.3,12.29-8.3a10.63,10.63,0,0,1,9,4.7c1.25,1.88,2,4.23,2,9.24V51a2.23,2.23,0,0,0,2.23,2.23h2.23V34.34c0-4.78-.78-7.67-2.11-10.1A15.14,15.14,0,0,0,427,16.72a16.62,16.62,0,0,0-14,7.59,14.87,14.87,0,0,0-13.39-7.59,15.34,15.34,0,0,0-12.06,5.64V17.51h-4.31v35.7h4.46V28.39A13.8,13.8,0,0,1,399.57,21a10.63,10.63,0,0,1,9,4.7c1.25,1.88,2,4.23,2,9.24Z" style="fill:#fff"/></svg>